<svg xmlns="http://www.w3.org/2000/svg" viewBox="0 0 256 256" width="256" height="256"><title>Sputnik Ship</title><defs><linearGradient id="ss-g" x1="0" y1="0" x2="1" y2="1"><stop offset="0" stop-color="#8b7cf6"/><stop offset="1" stop-color="#5e6ad2"/></linearGradient></defs><rect width="256" height="256" rx="0" fill="url(#ss-g)"/><path fill-rule="evenodd" fill="#fff" transform="translate(20.48 16.64) scale(0.84)" d="M138.11 45.50 L203.31 197.13 A11 11 0 0 1 188.99 211.64 L130.68 187.49 A7 7 0 0 0 125.32 187.49 L67.01 211.64 A11 11 0 0 1 52.69 197.13 L117.89 45.50 A11 11 0 0 1 138.11 45.50 Z M130.60 72.00 L155.13 114.50 A3 3 0 0 1 155.13 117.50 L130.60 160.00 A3 3 0 0 1 125.40 160.00 L100.87 117.50 A3 3 0 0 1 100.87 114.50 L125.40 72.00 A3 3 0 0 1 130.60 72.00 Z"/></svg>
