<svg xmlns="http://www.w3.org/2000/svg" xmlns:xlink="http://www.w3.org/1999/xlink" width="1600" height="840" viewBox="0 0 1600 840"><defs><filter id="grey"><feColorMatrix type="saturate" values="0"/></filter></defs><rect width="1600" height="840" fill="#f7f7f4"/><text x="60" y="78" font-family="system-ui,-apple-system,'Segoe UI',Helvetica,Arial,sans-serif" font-size="40" font-weight="700" fill="#161616">Logo concepts</text><text x="60" y="116" font-family="system-ui,-apple-system,'Segoe UI',Helvetica,Arial,sans-serif" font-size="20" fill="#6b6b6b">Concepts for review — pick a direction (or tell me what you like in each).</text><rect x="60" y="150" width="474.667" height="630" rx="18" fill="#fff" stroke="#e4e4e0" stroke-width="1"/><g filter="url(#grey)"><svg xmlns="http://www.w3.org/2000/svg" viewBox="0 0 256 256" x="90" y="190" width="414.667" height="300" preserveAspectRatio="xMidYMid meet"><title>A Proa</title>
<path d="M128.0 26.0 L214.0 222.0 L128.0 186.0 L42.0 222.0 Z" fill="#000" stroke="#000" stroke-width="14" stroke-linejoin="round"/>
<path d="M128.0 65.5 L156.0 114.0 L128.0 162.5 L100.0 114.0 Z" fill="#fff"/></svg></g><g filter="url(#grey)"><svg xmlns="http://www.w3.org/2000/svg" viewBox="0 0 256 256" x="90" y="516" width="64" height="64" preserveAspectRatio="xMidYMid meet"><title>A Proa</title>
<path d="M128.0 26.0 L214.0 222.0 L128.0 186.0 L42.0 222.0 Z" fill="#000" stroke="#000" stroke-width="14" stroke-linejoin="round"/>
<path d="M128.0 65.5 L156.0 114.0 L128.0 162.5 L100.0 114.0 Z" fill="#fff"/></svg></g><text x="122" y="600" font-family="system-ui,-apple-system,'Segoe UI',Helvetica,Arial,sans-serif" font-size="12" fill="#8a8a8a" text-anchor="middle">64px</text><g filter="url(#grey)"><svg xmlns="http://www.w3.org/2000/svg" viewBox="0 0 256 256" x="180" y="548" width="32" height="32" preserveAspectRatio="xMidYMid meet"><title>A Proa</title>
<path d="M128.0 26.0 L214.0 222.0 L128.0 186.0 L42.0 222.0 Z" fill="#000" stroke="#000" stroke-width="14" stroke-linejoin="round"/>
<path d="M128.0 65.5 L156.0 114.0 L128.0 162.5 L100.0 114.0 Z" fill="#fff"/></svg></g><text x="196" y="600" font-family="system-ui,-apple-system,'Segoe UI',Helvetica,Arial,sans-serif" font-size="12" fill="#8a8a8a" text-anchor="middle">32px</text><g filter="url(#grey)"><svg xmlns="http://www.w3.org/2000/svg" viewBox="0 0 256 256" x="238" y="564" width="16" height="16" preserveAspectRatio="xMidYMid meet"><title>A Proa</title>
<path d="M128.0 26.0 L214.0 222.0 L128.0 186.0 L42.0 222.0 Z" fill="#000" stroke="#000" stroke-width="14" stroke-linejoin="round"/>
<path d="M128.0 65.5 L156.0 114.0 L128.0 162.5 L100.0 114.0 Z" fill="#fff"/></svg></g><text x="246" y="600" font-family="system-ui,-apple-system,'Segoe UI',Helvetica,Arial,sans-serif" font-size="12" fill="#8a8a8a" text-anchor="middle">16px</text><text x="90.0" y="636" font-family="system-ui,-apple-system,'Segoe UI',Helvetica,Arial,sans-serif" font-size="26" font-weight="700" fill="#161616">A · Proa (evolución)</text><text x="90.0" y="670" font-family="system-ui,-apple-system,'Segoe UI',Helvetica,Arial,sans-serif" font-size="19" fill="#555">La flecha actual, limpia y con ángulos</text><text x="90.0" y="696" font-family="system-ui,-apple-system,'Segoe UI',Helvetica,Arial,sans-serif" font-size="19" fill="#555">exactos: conserva lo reconocible.</text><rect x="562.667" y="150" width="474.667" height="630" rx="18" fill="#fff" stroke="#161616" stroke-width="2"/><g filter="url(#grey)"><svg xmlns="http://www.w3.org/2000/svg" viewBox="0 0 256 256" x="592.667" y="190" width="414.667" height="300" preserveAspectRatio="xMidYMid meet"><title>B Sputnik</title>
<g stroke="#000" stroke-width="20" stroke-linecap="round"><line x1="170" y1="92" x2="104.2" y2="226.8"/><line x1="170" y1="92" x2="63.9" y2="198.1"/><line x1="170" y1="92" x2="35.2" y2="157.8"/></g><circle cx="170" cy="92" r="58" fill="#000"/></svg></g><g filter="url(#grey)"><svg xmlns="http://www.w3.org/2000/svg" viewBox="0 0 256 256" x="592.667" y="516" width="64" height="64" preserveAspectRatio="xMidYMid meet"><title>B Sputnik</title>
<g stroke="#000" stroke-width="20" stroke-linecap="round"><line x1="170" y1="92" x2="104.2" y2="226.8"/><line x1="170" y1="92" x2="63.9" y2="198.1"/><line x1="170" y1="92" x2="35.2" y2="157.8"/></g><circle cx="170" cy="92" r="58" fill="#000"/></svg></g><text x="624.667" y="600" font-family="system-ui,-apple-system,'Segoe UI',Helvetica,Arial,sans-serif" font-size="12" fill="#8a8a8a" text-anchor="middle">64px</text><g filter="url(#grey)"><svg xmlns="http://www.w3.org/2000/svg" viewBox="0 0 256 256" x="682.667" y="548" width="32" height="32" preserveAspectRatio="xMidYMid meet"><title>B Sputnik</title>
<g stroke="#000" stroke-width="20" stroke-linecap="round"><line x1="170" y1="92" x2="104.2" y2="226.8"/><line x1="170" y1="92" x2="63.9" y2="198.1"/><line x1="170" y1="92" x2="35.2" y2="157.8"/></g><circle cx="170" cy="92" r="58" fill="#000"/></svg></g><text x="698.667" y="600" font-family="system-ui,-apple-system,'Segoe UI',Helvetica,Arial,sans-serif" font-size="12" fill="#8a8a8a" text-anchor="middle">32px</text><g filter="url(#grey)"><svg xmlns="http://www.w3.org/2000/svg" viewBox="0 0 256 256" x="740.667" y="564" width="16" height="16" preserveAspectRatio="xMidYMid meet"><title>B Sputnik</title>
<g stroke="#000" stroke-width="20" stroke-linecap="round"><line x1="170" y1="92" x2="104.2" y2="226.8"/><line x1="170" y1="92" x2="63.9" y2="198.1"/><line x1="170" y1="92" x2="35.2" y2="157.8"/></g><circle cx="170" cy="92" r="58" fill="#000"/></svg></g><text x="748.667" y="600" font-family="system-ui,-apple-system,'Segoe UI',Helvetica,Arial,sans-serif" font-size="12" fill="#8a8a8a" text-anchor="middle">16px</text><text x="592.6666666666667" y="636" font-family="system-ui,-apple-system,'Segoe UI',Helvetica,Arial,sans-serif" font-size="26" font-weight="700" fill="#161616">B · Sputnik (el nombre)</text><text x="592.6666666666667" y="664" font-family="system-ui,-apple-system,'Segoe UI',Helvetica,Arial,sans-serif" font-size="15" font-weight="700" fill="#161616" letter-spacing="1.5">RECOMMENDED</text><text x="592.6666666666667" y="698" font-family="system-ui,-apple-system,'Segoe UI',Helvetica,Arial,sans-serif" font-size="19" fill="#555">El satélite Sputnik —&#x27;compañero de viaje&#x27;</text><text x="592.6666666666667" y="724" font-family="system-ui,-apple-system,'Segoe UI',Helvetica,Arial,sans-serif" font-size="19" fill="#555">en ruso— reducido a esfera y tres antenas.</text><rect x="1065.33" y="150" width="474.667" height="630" rx="18" fill="#fff" stroke="#e4e4e0" stroke-width="1"/><g filter="url(#grey)"><svg xmlns="http://www.w3.org/2000/svg" viewBox="0 0 256 256" x="1095.33" y="190" width="414.667" height="300" preserveAspectRatio="xMidYMid meet"><title>C Ruta</title>
<path d="M170.4 61.5 A48 48 0 1 0 128 132 A48 48 0 1 1 85.6 202.5" fill="none" stroke="#000" stroke-width="26" stroke-linecap="round"/>
<circle cx="174.6" cy="95.6" r="16" fill="#000"/><circle cx="81.4" cy="168.4" r="16" fill="#000"/></svg></g><g filter="url(#grey)"><svg xmlns="http://www.w3.org/2000/svg" viewBox="0 0 256 256" x="1095.33" y="516" width="64" height="64" preserveAspectRatio="xMidYMid meet"><title>C Ruta</title>
<path d="M170.4 61.5 A48 48 0 1 0 128 132 A48 48 0 1 1 85.6 202.5" fill="none" stroke="#000" stroke-width="26" stroke-linecap="round"/>
<circle cx="174.6" cy="95.6" r="16" fill="#000"/><circle cx="81.4" cy="168.4" r="16" fill="#000"/></svg></g><text x="1127.33" y="600" font-family="system-ui,-apple-system,'Segoe UI',Helvetica,Arial,sans-serif" font-size="12" fill="#8a8a8a" text-anchor="middle">64px</text><g filter="url(#grey)"><svg xmlns="http://www.w3.org/2000/svg" viewBox="0 0 256 256" x="1185.33" y="548" width="32" height="32" preserveAspectRatio="xMidYMid meet"><title>C Ruta</title>
<path d="M170.4 61.5 A48 48 0 1 0 128 132 A48 48 0 1 1 85.6 202.5" fill="none" stroke="#000" stroke-width="26" stroke-linecap="round"/>
<circle cx="174.6" cy="95.6" r="16" fill="#000"/><circle cx="81.4" cy="168.4" r="16" fill="#000"/></svg></g><text x="1201.33" y="600" font-family="system-ui,-apple-system,'Segoe UI',Helvetica,Arial,sans-serif" font-size="12" fill="#8a8a8a" text-anchor="middle">32px</text><g filter="url(#grey)"><svg xmlns="http://www.w3.org/2000/svg" viewBox="0 0 256 256" x="1243.33" y="564" width="16" height="16" preserveAspectRatio="xMidYMid meet"><title>C Ruta</title>
<path d="M170.4 61.5 A48 48 0 1 0 128 132 A48 48 0 1 1 85.6 202.5" fill="none" stroke="#000" stroke-width="26" stroke-linecap="round"/>
<circle cx="174.6" cy="95.6" r="16" fill="#000"/><circle cx="81.4" cy="168.4" r="16" fill="#000"/></svg></g><text x="1251.33" y="600" font-family="system-ui,-apple-system,'Segoe UI',Helvetica,Arial,sans-serif" font-size="12" fill="#8a8a8a" text-anchor="middle">16px</text><text x="1095.3333333333335" y="636" font-family="system-ui,-apple-system,'Segoe UI',Helvetica,Arial,sans-serif" font-size="26" font-weight="700" fill="#161616">C · Ruta S (la conversación)</text><text x="1095.3333333333335" y="670" font-family="system-ui,-apple-system,'Segoe UI',Helvetica,Arial,sans-serif" font-size="19" fill="#555">Una S trazada como la ruta curva del mapa,</text><text x="1095.3333333333335" y="696" font-family="system-ui,-apple-system,'Segoe UI',Helvetica,Arial,sans-serif" font-size="19" fill="#555">con remitente y destinatario en los</text><text x="1095.3333333333335" y="722" font-family="system-ui,-apple-system,'Segoe UI',Helvetica,Arial,sans-serif" font-size="19" fill="#555">extremos.</text></svg>
